<svg height="480pt" viewBox="-76 0 480 480" width="480pt" xmlns="http://www.w3.org/2000/svg"><path d="m320 336h-96v-224c0-4.417969-3.582031-8-8-8h-40v-96c0-4.417969-3.582031-8-8-8h-112c-4.417969 0-8 3.582031-8 8v96h-40c-4.417969 0-8 3.582031-8 8v360c0 4.417969 3.582031 8 8 8h208c4.417969 0 8-3.582031 8-8v-72h96c4.417969 0 8-3.582031 8-8v-48c0-4.417969-3.582031-8-8-8zm-160-192h-32v-128h32zm-64 0v-128h16v128zm-16-128v128h-16v-128zm128 448h-192v-344h32v24h-16v16h160v-16h-16v-24h32v216h-40.800781c-11.269531-19.851562-32.371094-32.085938-55.199219-32-35.347656 0-64 28.652344-64 64s28.652344 64 64 64c22.828125.085938 43.929688-12.148438 55.199219-32h40.800781zm-96-64h35.824219c-9.078125 10.246094-22.136719 16.078125-35.824219 16-26.507812 0-48-21.492188-48-48s21.492188-48 48-48c13.6875-.078125 26.746094 5.753906 35.824219 16h-35.824219c-4.417969 0-8 3.582031-8 8v48c0 4.417969 3.582031 8 8 8zm200-16h-192v-32h192zm0 0"/><path d="m64 272h96c4.417969 0 8-3.582031 8-8v-64c0-4.417969-3.582031-8-8-8h-96c-4.417969 0-8 3.582031-8 8v64c0 4.417969 3.582031 8 8 8zm8-64h80v48h-80zm0 0"/><path d="m88 224h16v16h-16zm0 0"/><path d="m120 224h16v16h-16zm0 0"/></svg>