<svg height="512" viewBox="0 0 42 59" width="512" xmlns="http://www.w3.org/2000/svg"><g id="Page-1" fill="none" fill-rule="evenodd"><g id="001---Fan" fill-rule="nonzero" transform="translate(-1 -1)"><path id="Shape" d="m28.27 45h2.26c1.5143353.0035698 2.8981747.8578393 3.58 2.21l3.89 7.79-16 2-16-2 3.89-7.79c.6818253-1.3521607 2.0656647-2.2064302 3.58-2.21z" fill="#2980ba"/><circle id="Oval" cx="18" cy="52" fill="#ecf0f1" r="1"/><circle id="Oval" cx="22" cy="52" fill="#ecf0f1" r="1"/><circle id="Oval" cx="26" cy="52" fill="#ecf0f1" r="1"/><path id="Shape" d="m38 55v3c-.0032948 1.1032019-.8967981 1.9967052-2 2h-28c-1.10320187-.0032948-1.9967052-.8967981-2-2v-3z" fill="#3b97d3"/><path id="Shape" d="m27.58 41.2.69 3.8.3 1.64c.1069043.5842093-.0513656 1.1857126-.4319574 1.64165s-.9441332.719142-1.5380426.71835h-9.2c-.5939094.000792-1.1574508-.2624126-1.5380426-.71835s-.5388617-1.0574407-.4319574-1.64165l.3-1.64.69-3.8z" fill="#285680"/><path id="Shape" d="m42 22c.0037616 8.8965667-5.8749354 16.723958-14.42 19.2-3.6435344 1.0666807-7.5164656 1.0666807-11.16 0-9.90758744-2.8785202-15.99966798-12.8211479-14.06535718-22.9554762 1.9343108-10.13432822 11.26015488-17.13417989 21.53144998-16.1612134s18.1169104 9.5994148 18.1139072 19.9166896z" fill="#84b5cb"/><path id="Shape" d="m22 43c-1.9840358.0006442-3.9579849-.2822144-5.862-.84-10.03949489-2.9171137-16.40420452-12.7748603-14.93094642-23.1252478 1.47325809-10.3503874 10.33573412-18.04072006 20.79044642-18.04072006s19.3171883 7.69033266 20.7904464 18.04072006c1.4732581 10.3503875-4.8914515 20.2081341-14.9309464 23.1252478-1.902329.5576761-3.874613.8405374-5.857.84zm0-40c-10.4934102 0-19 8.5065898-19 19s8.5065898 19 19 19 19-8.5065898 19-19c-.0115735-10.4886126-8.5113874-18.9884265-19-19z" fill="#ecf0f1"/><g fill="#2980ba"><path id="Shape" d="m34.291 16.22c-.3626149.0004192-.697044-.1954935-.874-.512-.6710761-1.2005282-1.5245872-2.2895139-2.53-3.228-1.3579323-1.2937807-2.9960966-2.2567626-4.787-2.814-.3417245-.10485744-.6015503-.3840576-.6816033-.73242846-.0800531-.34837085.0318285-.7129866.2935-.95650001.2616715-.2435134.6333788-.32892899.9751033-.22407153 2.0810969.64742308 3.9850202 1.76568714 5.564 3.268 1.1563525 1.07894 2.137761 2.3312564 2.909 3.712.2687544.4821689.0959801 1.0909072-.386 1.36-.1473822.0832078-.3137515.1269529-.483.127z"/><path id="Shape" d="m8.106 25.122c-.49941222-.0009218-.92158009-.3701586-.989-.865-.5068066-3.4579772.19350684-6.9849718 1.983-9.987.17892711-.313992.51334787-.5070131.87473593-.5048805.36138807.0021327.69350747.1990872.86871637.515169.1752089.3160819.1662428.7021052-.0234523 1.0097115-1.55938665 2.6149133-2.16735567 5.6883186-1.721 8.7.03584612.2628364-.03420863.5291459-.1947473.7403218-.16053867.2111758-.39840535.3499125-.6612527.3856782-.04545138.0054353-.09124747.007441-.137.006z"/><path id="Shape" d="m22 37.03h-.12c-.5522847 0-1-.4477153-1-1s.4477153-1 1-1h.12c1.3041015-.0005423 2.6008997-.1946576 3.848-.576 1.8009527-.5405221 3.4466585-1.5036029 4.8-2.809.2507159-.2649721.6258244-.3724008.9787976-.2803215.3529731.0920793.6278027.369056.7171324.722735s-.0210149.7279402-.28793.9765865c-1.5802389 1.5324506-3.5046081 2.664029-5.612 3.3-1.4400501.4414135-2.937816.6658762-4.444.666z"/><path id="Shape" d="m23.639 33.39c-.5221549-.0002367-.956232-.4021711-.9965598-.9227665-.0403278-.5205953.3266706-.984585.8425598-1.0652335.288-.045.567-.1.847-.171 1.8709445-.4572938 3.5474227-1.4990501 4.786-2.974.3567287-.4184219.9843492-.4703461 1.4049907-.1162374s.4764842.9813927.1250093 1.4042374c-1.5081008 1.796663-3.548957 3.0666381-5.827 3.626-.333.085-.674.152-1.026.207-.0516223.0079341-.1037716.0119456-.156.012z"/><path id="Shape" d="m12.06 25.974c-.3974352-.0002048-.757026-.2357446-.916-.6-.4725119-1.0648687-.7027171-2.2213592-.674-3.386-.00195-1.0586404.14173-2.1125177.427-3.132.1005807-.3716066.2231295-.7369156.367-1.094.2079352-.5116918.7913082-.7579352 1.303-.55s.7579352.7913082.55 1.303c-.115272.2861538-.2131176.5790227-.293.877-.236844.8462967-.355964 1.7211887-.354 2.6-.0296014.8874997.1430895 1.7701037.505 2.581.1348201.3089106.104956.6649539-.0794397.9470894s-.4985114.4524001-.8355603.4529106z"/><path id="Shape" d="m30.271 16.49c-.3091588.0005234-.6011767-.1419784-.791-.386-.1874171-.243831-.3877013-.477496-.6-.7-1.5460871-1.6049945-3.6021629-2.6224268-5.816-2.878-.5451749-.0744036-.9278214-.5752577-.8562906-1.120817.0715307-.5455592.5703621-.9308388 1.1162906-.862183 2.6622562.3231186 5.1331036 1.5497178 7 3.475.2612159.273819.5082074.5608632.74.86.2344817.3014297.2768124.7100888.109093 1.0531802-.1677194.3430915-.516201.5607029-.898093.5608198z"/></g><path id="Shape" d="m22.91 17.09c-.2995911-.0601504-.6044303-.0902993-.91-.09-1.4469451-.0019447-2.8231047.6259053-3.77 1.72-3.03-2.91-6.53-7-5.01-9.28 2.52-3.78 11.34-5.04 15.12-1.26 3.11 3.11-5.71 2.81-5.43 8.91z" fill="#ecf0f1"/><path id="Shape" d="m21.09 26.91c-.99 4.09-2.8 9.25-5.55 9.09-4.54-.29-10.03-7.31-8.66-12.47 1.14-4.25 5.3 3.55 10.45.25.6178259 1.6304362 2.0445536 2.8181111 3.76 3.13z" fill="#ecf0f1"/><path id="Shape" d="m30.9 34.43c-4.27 1.16.46-6.42-5.09-9.2.7682958-.9008115 1.1902254-2.0460491 1.19-3.23-.0009053-.5299011-.0852725-1.0563525-.25-1.56 4.04-1.18 9.4-2.2 10.61.27 2.02 4.07-1.31 12.34-6.46 13.72z" fill="#ecf0f1"/><path id="Shape" d="m27 22c-.0071442 2.7584591-2.2415409 4.9928558-5 5-.3055697.0002993-.6104089-.0298496-.91-.09-2.5250917-.4853669-4.2703677-2.806779-4.0352421-5.3673229.2351256-2.560544 2.3739842-4.5252898 4.9452421-4.5426771.3055697-.0002993.6104089.0298496.91.09 1.7975602.3278169 3.2713385 1.613535 3.84 3.35.1647275.5036475.2490947 1.0300989.25 1.56z" fill="#fff"/></g></g></svg>