<svg height="512" viewBox="0 0 42 60" width="512" xmlns="http://www.w3.org/2000/svg"><g id="Page-1" fill="none" fill-rule="evenodd"><g id="001---Fan" fill="rgb(0,0,0)" fill-rule="nonzero" transform="translate(-1 -1)"><path id="Shape" d="m15.28 41.878-.386 2.122h-1.424c-1.889651.0119376-3.61445671 1.0780759-4.47 2.763l-3.891 7.79c-.005.012-.007.025-.012.037s-.015.045-.024.067c-.03561048.0962764-.05618486.1974619-.061.3 0 .013-.008.025-.008.039v3c0 1.6568542 1.34314575 3 3 3h27.996c1.6568542 0 3-1.3431458 3-3v-2.996c0-.014-.007-.026-.008-.039-.0048151-.1025381-.0253895-.2037236-.061-.3-.009-.022-.014-.045-.024-.067s-.007-.025-.012-.037l-3.895-7.797c-.8563686-1.6837599-2.5810094-2.7486388-4.47-2.76h-1.424l-.386-2.122c9.743017-3.290804 15.6695713-13.1531524 14.0021034-23.3008281-1.6674679-10.14767578-10.4383409-17.59494029-20.7221034-17.59494029s-19.05463547 7.44726451-20.72210337 17.59494029c-1.6674679 10.1476757 4.25908633 20.0100241 14.00210337 23.3008281zm21.72 16.122c0 .5522847-.4477153 1-1 1h-28c-.55228475 0-1-.4477153-1-1v-2h30zm-6.47-12c1.1345261.0064811 2.170507.6458183 2.685 1.657l3.168 6.343h-28.766l3.166-6.34c.5143454-1.0126616 1.5512232-1.6532337 2.687-1.66h1.061l-.084.461c-.1599583.8758173.0773501 1.777439.6477462 2.4610258s1.4149492 1.0785136 2.3052538 1.0779742h9.2c.8897451-.0001083 1.7335397-.3951544 2.3034445-1.0784222.5699049-.6832678.8071165-1.5842569.6475555-2.4595778l-.082-.462zm-2.945.821c.0531176.2919524-.0261721.5924166-.2164286.8201449-.1902564.2277283-.4718264.3591967-.7685714.3588551h-9.2c-.2966049-.0001977-.5778176-.1320536-.7676614-.3599435-.1898439-.2278899-.2687276-.5282961-.2153386-.8200565l.8-4.392c3.1457681.7626635 6.4282319.7626635 9.574 0zm-5.585-43.821c10.4934102 0 19 8.5065898 19 19s-8.5065898 19-19 19-19-8.5065898-19-19c.0115735-10.4886126 8.5113874-18.9884265 19-19z"/><path id="Shape" d="m8.146 32.126c1.15560204 1.6555749 2.675581 3.0240007 4.443 4 .8931998.4890163 1.8784479.7866681 2.893.874h.188c2.54 0 4.615-3.035 6.176-9.012.052 0 .1.008.154.008 1.4579078-.0000664 2.8654007-.5336118 3.957-1.5.9993954.7304115 1.6364968 1.8552652 1.749 3.088-.999216.7748826-2.1479665 1.3346176-3.374 1.644-.28.072-.559.126-.847.171-.5158892.0806485-.8828876.5446382-.8425598 1.0652335.0403278.5205954.4744049.9225298.9965598.9227665.0522284-.0000544.1043777-.0040659.156-.012.352-.055.693-.122 1.026-.207 1.0650447-.272079 2.0842839-.6993171 3.025-1.268-.0020077.552583.0381085 1.1045151.12 1.651-1.8306063.9921398-3.8839411 1.5011713-5.966 1.479h-.12c-.5522847 0-1 .4477153-1 1s.4477153 1 1 1h.12c2.4576238.0228347 4.8793768-.5903546 7.03-1.78.3299029.1975439.7074771.301273 1.092.3.3509583-.0052191.6996709-.0570048 1.037-.154 2.621-.7 5.066-3.072 6.541-6.338 1.445-3.2 1.658-6.571.558-8.788-1.167-2.384-4.753-2.719-10.935-1.028-.7118307-1.366444-1.9198714-2.4084508-3.376-2.912.1666175-1.231369.8500259-2.333406 1.879-3.03 1.145668.492241 2.1828443 1.2058944 3.052 2.1.2122987.222504.4125829.456169.6.7.3391028.4363049.967695.5151028 1.404.176.4363049-.3391029.5151028-.967695.176-1.404-.2317926-.2991368-.4787841-.586181-.74-.86-.7558568-.7779334-1.6180863-1.4448903-2.561-1.981.4749401-.2707601.9259093-.5815542 1.348-.929.632029.4055525 1.2276045.8652832 1.78 1.374 1.0054128.9384861 1.8589239 2.0274718 2.53 3.228.176956.3165065.5113851.5124192.874.512.1702649.0004712.3377328-.043291.486-.127.4819801-.2690928.6547544-.8778311.386-1.36-.771239-1.3807436-1.7526475-2.63306-2.909-3.712-.6987297-.6434303-1.457534-1.21839363-2.266-1.717-.0675189-.70591687-.4036805-1.35890811-.939-1.824-1.919-1.919-5.192-2.855-8.75-2.5-3.5.346-6.53 1.846-7.909 3.914-1.468 2.2.019 5.461 4.527 9.944-.8349952 1.3234956-1.1131944 2.9233205-.774 4.451-1.1608121.4700051-2.4669047.4230862-3.591-.129-.0574111-.3842663-.0841621-.7724909-.08-1.161-.001964-.8788113.117156-1.7537033.354-2.6.0798824-.2979773.177728-.5908462.293-.877.2079352-.5116918-.0383082-1.0950648-.55-1.303s-1.0950648.0383082-1.303.55c-.1438705.3570844-.2664193.7223934-.367 1.094-.28527 1.0194823-.42895 2.0733596-.427 3.132v.094c-.47126737-.2767288-.96621813-.5109854-1.479-.7.02579097-.7474642.12052623-1.4909519.283-2.221.30664802-1.3651427.828502-2.6728155 1.546-3.874.1896951-.3076063.1986612-.6936296.0234523-1.0097115-.1752089-.3160818-.5073283-.5130363-.86871637-.515169-.36138806-.0021326-.69580882.1908885-.87473593.5048805-.82396131 1.3803967-1.4227962 2.8832224-1.774 4.452-.21029592.935639-.32521655 1.8901838-.343 2.849-.55384876.4153884-.93458477 1.0208619-1.069 1.7-.699 2.629.136 5.941 2.232 8.855zm28.318-10.971c.83 1.672.6 4.451-.588 7.08-1.23 2.725-3.187 4.681-5.238 5.23-.1782044.0540504-.3628466.0839833-.549.089h-.049c-.1711136-.6111145-.2387146-1.2465633-.2-1.88-.034-2-.091-4.9-2.613-6.743.6554174-1.1459222.9022283-2.4804643.7-3.785 5.532-1.491 8.042-1.001 8.537.009zm-10.464.845c0 2.209139-1.790861 4-4 4s-4-1.790861-4-4 1.790861-4 4-4 4 1.790861 4 4zm-11.948-12c1.039-1.558 3.568-2.749 6.442-3.034 2.968-.292 5.639.427 7.139 1.926.1484959.13764646.2746716.29755898.374.474-.4440433.45383104-.9612582.8297415-1.53 1.112-1.689 1.012-4.145 2.492-4.519 5.529-1.3537461.0083499-2.6644449.4766329-3.717 1.328-3.424-3.435-4.984-6.147-4.189-7.34zm2.842 15.14c.6957766 1.1302666 1.7455217 1.9989605 2.986 2.471-1.464 5.52-3.18 7.442-4.28 7.389-1.862-.119-4.152-1.706-5.834-4.044-1.751-2.433-2.47-5.114-1.924-7.169.04472943-.197452.11996603-.3867243.223-.561.62077266.1498074 1.20882465.412143 1.735.774 1.733.962 4.26 2.358 7.094 1.135z"/><circle id="Oval" cx="18" cy="52" r="1"/><circle id="Oval" cx="22" cy="52" r="1"/><circle id="Oval" cx="26" cy="52" r="1"/></g></g></svg>