<svg id="Layer_1" enable-background="new 0 0 480.165 480.165" height="512" viewBox="0 0 480.165 480.165" width="512" xmlns="http://www.w3.org/2000/svg"><path d="m399.001 151.312v256.27c0 22.09-17.91 40-40 40h-61v-140.53c0-14.07-11.4-25.47-25.47-25.47h-87.06c-14.07 0-25.47 11.4-25.47 25.47v140.53h-60c-22.09 0-40-17.91-40-40v-257.22l134.44-87.22c20.88-13.55 47.78-13.55 68.66 0l58.55 37.99.35-.55v-68h68v112.89z" fill="#e8f8fc"/><path d="m390.001 32.582v112.89l-68.35-44.34.35-.55v-68z" fill="#fe4f60"/><path d="m322.001 32.582h68v20.41h-68z" fill="#e84857"/><path d="m399.001 151.312v42.21l-140.25-91c-18.21-11.82-41.75-11.82-59.96 0l-138.79 90.05v-42.21l134.44-87.22c20.88-13.55 47.78-13.55 68.66 0 62.24 40.385 135.676 88.025 135.9 88.17z" fill="#bdeffc"/><path d="m298.001 307.052v140.53h-138v-140.53c0-14.07 11.4-25.47 25.47-25.47h87.06c14.07 0 25.47 11.4 25.47 25.47z" fill="#42434d"/><path d="m298.001 307.052v26.394c0 7.633-5.75 13.988-13.331 14.874-40.599 4.746-74.459 23.794-98.199 52.048-9.009 10.722-26.47 4.431-26.47-9.574v-83.743c0-14.067 11.403-25.47 25.47-25.47h87.06c14.067.001 25.47 11.405 25.47 25.471z" fill="#4d4e59"/><path d="m400.738 349.657c-9.445 9.446-2.665 25.606 10.606 25.606 13.26 0 20.063-16.15 10.607-25.606-5.861-5.863-15.35-5.864-21.213 0zm47.377-26.163c3.124 3.124 3.124 8.189 0 11.314-3.124 3.123-8.188 3.126-11.314 0-14.068-14.069-36.842-14.07-50.911 0-3.125 3.125-8.189 3.124-11.314 0-3.124-3.124-3.124-8.189 0-11.314 20.321-20.321 53.214-20.326 73.539 0zm24.041-16.042c-2.048 0-4.095-.781-5.657-2.343-30.482-30.484-79.823-30.486-110.308 0-3.125 3.125-8.189 3.124-11.314 0-3.124-3.124-3.124-8.19 0-11.314 36.738-36.737 96.195-36.74 132.937 0 5.046 5.047 1.417 13.656-5.658 13.657zm-65.155 100.13c0 26.467-21.532 48-48 48h-259c-26.468 0-48-21.533-48-48v-242.491l-39.646 25.722c-3.706 2.405-8.66 1.349-11.065-2.357-2.405-3.707-1.35-8.661 2.356-11.065l186.436-120.961c23.502-15.248 53.87-15.248 77.372 0l46.547 30.2v-46.048c-4.418 0-8-3.582-8-8s3.582-8 8-8h85c4.418 0 8 3.582 8 8s-3.582 8-8 8h-1v54c0 4.418-3.582 8-8 8s-8-3.582-8-8v-54h-52v56.429l123.889 80.38c6.682 4.335 3.56 14.712-4.362 14.712-3.508 0 9.142 7.462-190.782-122.251-18.21-11.814-41.742-11.815-59.954 0l-130.791 84.858v252.872c0 17.645 14.355 32 32 32h190v-132.527c0-9.635-7.839-17.473-17.474-17.473h-87.053c-9.635 0-17.474 7.838-17.474 17.473v99.527c0 4.418-3.582 8-8 8s-8-3.582-8-8v-99.527c0-18.457 15.017-33.473 33.474-33.473h87.053c18.457 0 33.474 15.016 33.474 33.473v132.527h53c17.645 0 32-14.355 32-32 0-4.418 3.582-8 8-8s8 3.582 8 8zm-8-214c4.418 0 8 3.582 8 8v32.5c0 4.418-3.582 8-8 8s-8-3.582-8-8v-32.5c0-4.418 3.582-8 8-8z"/></svg>